<?xml version="1.0"?><svg enable-background="new 0 0 32 32" version="1.1" viewBox="0 0 32 32" xml:space="preserve" xmlns="http://www.w3.org/2000/svg" xmlns:xlink="http://www.w3.org/1999/xlink"><g id="stiches"><g><g id="Shopping_10_137_"><g><g><g><g><g><path d="M16,2.115C8.332,2.115,2.115,8.332,2.115,16S8.332,29.885,16,29.885S29.885,23.668,29.885,16          S23.668,2.115,16,2.115L16,2.115z" fill="#FFFFFF"/><path d="M16,30.259C8.137,30.259,1.74,23.863,1.74,16c0-7.863,6.397-14.26,14.26-14.26          S30.259,8.137,30.259,16C30.259,23.863,23.863,30.259,16,30.259z M16,2.491C8.551,2.491,2.49,8.551,2.49,16          S8.551,29.509,16,29.509c7.449,0,13.509-6.06,13.509-13.509S23.449,2.491,16,2.491z" fill="#CCCCCC"/></g></g></g></g></g></g><g><g><g><g><g><path d="M16,0c-0.002,0-0.005,0-0.007,0c-0.001,0-0.001,0-0.002,0c-0.002,0-0.003,0-0.005,0         c0,0-0.002,0-0.003,0c-0.001,0-0.003,0-0.005,0c-0.001,0-0.001,0-0.002,0c-0.002,0-0.003,0-0.005,0c-0.001,0-0.002,0-0.003,0         c-0.001,0-0.003,0-0.005,0c-0.001,0-0.002,0-0.002,0c-0.002,0-0.004,0-0.006,0c0,0,0,0-0.001,0c-0.002,0-0.005,0-0.007,0         c-0.001,0,0,0-0.001,0c-0.002,0-0.004,0-0.006,0c-0.001,0-0.002,0-0.003,0c-0.002,0-0.003,0-0.005,0         c-0.001,0-0.002,0-0.002,0c-0.002,0-0.004,0-0.005,0c-0.001,0-0.001,0-0.002,0c-0.002,0-0.003,0-0.005,0c0,0-0.001,0-0.002,0         c-0.002,0-0.004,0-0.006,0c-0.001,0-0.001,0-0.001,0c-0.005,0-0.01,0-0.015,0l-0.001,0c-0.002,0-0.004,0-0.007,0         c-0.001,0-0.001,0-0.001,0c-0.002,0-0.004,0-0.006,0c-0.001,0-0.001,0-0.002,0c-0.002,0-0.004,0-0.006,0l-0.001,0         c-0.002,0-0.005,0-0.007,0h0c-0.01,0-0.02,0-0.03,0h0c-0.238,0.002-0.476,0.01-0.712,0.023l-0.001,0         c-0.002,0-0.004,0-0.006,0c-0.001,0-0.002,0-0.002,0c-0.002,0-0.004,0-0.005,0c-0.001,0-0.002,0-0.003,0         c-0.001,0-0.002,0-0.004,0c-0.002,0-0.002,0-0.003,0c-0.001,0-0.002,0-0.003,0c-0.016,0.001-0.032,0.002-0.048,0.003         l0.044,0.749C15.394,0.759,15.696,0.75,16,0.75V0L16,0L16,0z M14.104,0.111c-0.163,0.019-0.325,0.041-0.486,0.065         c0,0-0.001,0-0.002,0c-0.002,0-0.003,0.001-0.005,0.001c-0.001,0-0.001,0-0.002,0c-0.001,0-0.003,0-0.004,0.001         c-0.001,0-0.002,0-0.003,0c-0.001,0-0.002,0-0.004,0.001c-0.001,0-0.002,0-0.003,0.001c-0.001,0-0.002,0-0.003,0         c-0.003,0-0.006,0.001-0.009,0.001l-0.001,0c-0.002,0-0.003,0.001-0.005,0.001l-0.002,0c-0.002,0-0.003,0-0.005,0.001         c0,0-0.001,0-0.001,0c-0.002,0-0.003,0-0.005,0.001l-0.001,0c-0.133,0.02-0.266,0.042-0.398,0.066l0.132,0.738         c0.296-0.053,0.594-0.097,0.896-0.133L14.104,0.111L14.104,0.111z M12.235,0.446c-0.172,0.042-0.344,0.086-0.514,0.133l0,0         c-0.002,0.001-0.004,0.001-0.006,0.002l-0.001,0c-0.005,0.002-0.011,0.003-0.017,0.005l-0.001,0         c-0.001,0-0.003,0.001-0.004,0.001c-0.001,0-0.002,0-0.003,0.001c-0.001,0-0.003,0.001-0.004,0.001         c-0.001,0-0.002,0.001-0.003,0.001c-0.001,0-0.002,0.001-0.003,0.001c-0.002,0-0.003,0.001-0.005,0.001         c-0.001,0-0.001,0-0.002,0.001c-0.002,0.001-0.004,0.001-0.007,0.002c0,0,0,0-0.001,0c-0.002,0.001-0.004,0.001-0.006,0.002         c0,0-0.002,0.001-0.002,0.001c-0.002,0-0.003,0.001-0.005,0.001c-0.001,0-0.001,0-0.002,0.001         C11.65,0.599,11.648,0.599,11.646,0.6c0,0,0,0-0.001,0c-0.109,0.031-0.218,0.063-0.326,0.096l0.219,0.717         c0.287-0.088,0.579-0.167,0.873-0.238L12.235,0.446L12.235,0.446z M10.419,1c-0.298,0.111-0.591,0.23-0.88,0.358l0.303,0.686         c0.275-0.122,0.555-0.235,0.838-0.341L10.419,1L10.419,1z M8.682,1.768C8.526,1.848,8.371,1.932,8.217,2.017l0,0         C8.215,2.018,8.213,2.019,8.211,2.021l0,0C8.204,2.024,8.198,2.028,8.192,2.031c0,0,0,0-0.001,0         C8.189,2.033,8.187,2.034,8.186,2.035c0,0-0.001,0-0.001,0C8.183,2.037,8.181,2.038,8.179,2.039l0,0         C8.174,2.041,8.17,2.043,8.166,2.046L8.165,2.047C8.163,2.047,8.162,2.048,8.16,2.049c-0.001,0-0.001,0.001-0.002,0.001         C8.157,2.051,8.155,2.052,8.154,2.053c0,0-0.001,0.001-0.002,0.001C8.15,2.055,8.149,2.056,8.147,2.057         c0,0-0.001,0.001-0.001,0.001C8.144,2.058,8.142,2.059,8.14,2.06c0,0-0.002,0.001-0.002,0.001         C8.137,2.062,8.136,2.063,8.135,2.064c-0.001,0-0.002,0.001-0.003,0.002C8.131,2.066,8.13,2.066,8.128,2.067         c-0.001,0-0.002,0.001-0.003,0.001C8.125,2.069,8.123,2.07,8.122,2.071c0,0-0.001,0.001-0.002,0.001         C8.118,2.073,8.116,2.074,8.114,2.075c-0.001,0-0.002,0.001-0.003,0.001C8.111,2.077,8.11,2.078,8.109,2.078         c-0.001,0-0.002,0.001-0.003,0.002c-0.001,0-0.002,0.001-0.002,0.001c-0.001,0-0.002,0.001-0.003,0.002         C8.099,2.084,8.098,2.084,8.097,2.085C8.096,2.086,8.095,2.086,8.094,2.087c-0.001,0-0.001,0.001-0.002,0.001         C8.089,2.089,8.087,2.091,8.084,2.092c0,0-0.001,0.001-0.001,0.001C8.082,2.094,8.081,2.094,8.079,2.095         c-0.001,0-0.002,0.001-0.003,0.001C8.076,2.097,8.074,2.098,8.074,2.098C8.073,2.099,8.072,2.099,8.072,2.099         C8.07,2.1,8.069,2.101,8.068,2.102c0,0-0.001,0-0.001,0C8.062,2.105,8.057,2.108,8.052,2.11c0,0-0.001,0-0.001,0         C8.05,2.112,8.049,2.113,8.047,2.113L8.045,2.114C8.044,2.115,8.043,2.116,8.041,2.117c0,0-0.001,0-0.001,0.001         C8.039,2.118,8.037,2.119,8.036,2.12l0,0C8.032,2.122,8.029,2.124,8.026,2.125c0,0-0.001,0-0.001,0.001         C8.024,2.127,8.022,2.128,8.021,2.128L8.02,2.129C8.018,2.13,8.017,2.131,8.015,2.132c0,0-0.001,0-0.001,0.001         C8.008,2.136,8.001,2.14,7.995,2.144c0,0-0.001,0-0.001,0C7.992,2.145,7.991,2.146,7.989,2.147l0,0         C7.98,2.152,7.972,2.157,7.963,2.162l0,0C7.952,2.168,7.942,2.174,7.931,2.18l0,0C7.924,2.184,7.918,2.188,7.911,2.193l0,0         C7.9,2.199,7.89,2.205,7.879,2.211l0,0C7.87,2.217,7.861,2.222,7.851,2.228l0.383,0.645c0.259-0.154,0.523-0.3,0.792-0.438         L8.682,1.768L8.682,1.768z M7.049,2.736c-0.063,0.043-0.127,0.086-0.189,0.13c0,0-0.001,0.001-0.001,0.001         C6.857,2.868,6.855,2.869,6.854,2.87C6.853,2.871,6.853,2.871,6.852,2.872C6.851,2.872,6.85,2.873,6.849,2.874         C6.848,2.874,6.847,2.875,6.846,2.876C6.845,2.876,6.844,2.877,6.843,2.878C6.841,2.879,6.84,2.88,6.838,2.882         c-0.001,0-0.001,0.001-0.002,0.001C6.835,2.884,6.833,2.885,6.832,2.886c0,0-0.001,0.001-0.001,0.001         C6.829,2.888,6.828,2.888,6.826,2.889c0,0,0,0-0.001,0C6.64,3.02,6.458,3.154,6.278,3.291l0.456,0.595         c0.239-0.183,0.484-0.36,0.735-0.529L7.049,2.736L7.049,2.736z M5.541,3.891c-0.24,0.207-0.473,0.421-0.7,0.642l0.523,0.537         C5.581,4.86,5.803,4.656,6.032,4.459L5.541,3.891L5.541,3.891z M4.181,5.216c-0.213,0.234-0.42,0.474-0.619,0.72l0.583,0.472         c0.19-0.235,0.387-0.464,0.591-0.687L4.181,5.216L4.181,5.216z M2.985,6.691C2.924,6.777,2.864,6.863,2.804,6.949L2.804,6.95         C2.802,6.952,2.802,6.953,2.801,6.954L2.8,6.956C2.799,6.957,2.798,6.958,2.797,6.96l0,0         C2.795,6.963,2.793,6.966,2.791,6.969c0,0-0.001,0.001-0.001,0.001C2.789,6.971,2.789,6.972,2.788,6.973         C2.787,6.974,2.787,6.975,2.786,6.975C2.786,6.976,2.785,6.978,2.784,6.978C2.784,6.979,2.783,6.98,2.782,6.981         C2.782,6.982,2.781,6.983,2.78,6.984C2.78,6.985,2.779,6.986,2.779,6.986C2.778,6.988,2.777,6.988,2.777,6.989         C2.775,6.991,2.774,6.993,2.773,6.995C2.772,6.996,2.772,6.996,2.772,6.997C2.771,6.998,2.77,6.999,2.769,7         c0,0-0.001,0.002-0.001,0.002C2.767,7.004,2.766,7.005,2.765,7.006C2.765,7.007,2.764,7.007,2.764,7.008         C2.763,7.01,2.762,7.011,2.761,7.013l0,0.001C2.757,7.018,2.755,7.022,2.752,7.026c0,0,0,0,0,0         C2.75,7.028,2.749,7.03,2.748,7.031L2.747,7.032C2.648,7.18,2.55,7.329,2.455,7.479l0.634,0.4         c0.161-0.256,0.33-0.506,0.505-0.751L2.985,6.691L2.985,6.691z M1.973,8.298c0,0,0,0.001-0.001,0.001         c0,0-0.001,0.002-0.001,0.002C1.968,8.306,1.966,8.31,1.963,8.315c0,0,0,0,0,0C1.962,8.317,1.961,8.318,1.96,8.32l0,0.001         C1.812,8.59,1.672,8.864,1.54,9.143l0.677,0.322c0.13-0.273,0.267-0.542,0.413-0.806L1.973,8.298L1.973,8.298z M1.158,10.013         c-0.042,0.103-0.082,0.206-0.121,0.31c0,0,0,0,0,0.001c-0.001,0.002-0.001,0.004-0.002,0.006c0,0,0,0.001-0.001,0.002         c-0.001,0.002-0.001,0.003-0.002,0.005l-0.001,0.002c-0.001,0.002-0.001,0.003-0.002,0.005         c-0.001,0.001-0.001,0.003-0.002,0.005c0,0.001-0.001,0.002-0.001,0.003c-0.001,0.001-0.001,0.002-0.001,0.004         c0,0-0.001,0.002-0.001,0.002c-0.001,0.001-0.001,0.002-0.001,0.004c0,0.001-0.001,0.002-0.001,0.003         c-0.001,0.001-0.001,0.002-0.001,0.004c0,0.001,0,0.001-0.001,0.002c-0.002,0.005-0.004,0.01-0.006,0.016l0,0         c-0.064,0.172-0.126,0.345-0.185,0.52l0.711,0.239c0.096-0.287,0.201-0.57,0.314-0.849L1.158,10.013L1.158,10.013z          M0.553,11.813c-0.078,0.289-0.148,0.581-0.211,0.877l0,0.001c0,0.002-0.001,0.004-0.001,0.006l0,0.001         c0,0.002-0.001,0.003-0.001,0.005l0,0.001c-0.001,0.005-0.002,0.011-0.003,0.016c0,0,0,0.001,0,0.001         c0,0.002-0.001,0.003-0.001,0.004c0,0.001,0,0.002,0,0.002c0,0.002-0.001,0.004-0.001,0.005c0,0.001,0,0.002-0.001,0.002         c0,0.001,0,0.002-0.001,0.003l0.734,0.152c0.061-0.297,0.132-0.59,0.21-0.88L0.553,11.813L0.553,11.813z M0.168,13.672         c-0.03,0.208-0.057,0.418-0.079,0.628l0,0.001c0,0.002,0,0.004-0.001,0.006l0,0c0,0.002,0,0.004-0.001,0.006c0,0,0,0,0,0         c-0.001,0.006-0.001,0.012-0.002,0.018c0,0,0,0.001,0,0.001c0,0.002,0,0.002,0,0.004c0,0.001,0,0.002,0,0.003         c0,0.001,0,0.002,0,0.003c0,0.001,0,0.002,0,0.004c0,0.001,0,0.002,0,0.003c0,0.001,0,0.003,0,0.004c0,0.001,0,0.002,0,0.002         c-0.001,0.007-0.001,0.014-0.002,0.021c0,0,0,0.001,0,0.001c0,0.002,0,0.004-0.001,0.006l0,0.001         c0,0.002,0,0.005-0.001,0.007l0,0c-0.007,0.074-0.014,0.148-0.021,0.222l0.747,0.064c0.026-0.302,0.061-0.602,0.104-0.899         L0.168,13.672L0.168,13.672z M0.006,15.564C0.003,15.682,0.001,15.8,0,15.918l0,0.001c0,0.002,0,0.004,0,0.006         c0,0.001,0,0.001,0,0.001c0,0.002,0,0.004,0,0.006c0,0,0,0.001,0,0.002c0,0.002,0,0.003,0,0.005c0,0.001,0,0.001,0,0.002         c0,0.001,0,0.003,0,0.004c0,0.001,0,0.001,0,0.002c0,0.002,0,0.003,0,0.005c0,0,0,0.001,0,0.002c0,0.001,0,0.003,0,0.004         c0,0.001,0,0.002,0,0.003c0,0.001,0,0.003,0,0.004c0,0,0,0.002,0,0.003c0,0.001,0,0.002,0,0.004c0,0.001,0,0.002,0,0.003         c0,0.001,0,0.003,0,0.004c0,0.001,0,0.002,0,0.003c0,0.001,0,0.003,0,0.004c0,0.001,0,0.002,0,0.003c0,0.002,0,0.004,0,0.006         c0,0.001,0,0,0,0.001C0,15.995,0,15.998,0,16l0,0c0,0.002,0,0.005,0,0.007c0,0.001,0,0.002,0,0.002c0,0.002,0,0.003,0,0.005         c0,0.001,0,0.002,0,0.003c0,0.002,0,0.003,0,0.005c0,0.001,0,0.002,0,0.003c0,0.002,0,0.004,0,0.006c0,0.001,0,0.001,0,0.002         c0,0.002,0,0.004,0,0.006c0,0.001,0,0.001,0,0.003c0,0.002,0,0.003,0,0.005c0,0.001,0,0.001,0,0.003c0,0.002,0,0.004,0,0.005         c0,0,0,0.002,0,0.002c0,0.002,0,0.005,0,0.007l0,0.001c0,0.003,0,0.005,0,0.007c0,0,0,0.001,0,0.002c0,0.002,0,0.004,0,0.006         l0,0.002c0,0.002,0,0.004,0,0.006c0,0,0,0,0,0.001c0,0.008,0,0.016,0,0.023l0,0.001c0,0.002,0,0.005,0,0.007         c0,0.001,0,0,0,0.001c0.001,0.131,0.004,0.263,0.008,0.393l0.75-0.024C0.753,16.328,0.75,16.164,0.75,16         c0-0.139,0.002-0.278,0.006-0.416L0.006,15.564L0.006,15.564z M0.813,17.395l-0.747,0.068         c0.012,0.136,0.026,0.272,0.042,0.407l0,0c0,0.002,0.001,0.004,0.001,0.007c0,0.001,0,0.001,0,0.001         c0,0.002,0,0.004,0.001,0.006l0,0.001c0,0.002,0,0.004,0.001,0.005c0,0.001,0,0.002,0,0.002c0,0.002,0,0.004,0.001,0.006         l0,0.002c0,0.002,0,0.004,0.001,0.005c0,0.002,0,0.003,0.001,0.004c0,0.001,0,0.003,0,0.004c0,0.002,0,0.002,0,0.003         c0,0.001,0,0.002,0,0.003c0,0.001,0,0.003,0,0.004c0,0,0,0.002,0,0.003c0,0.002,0,0.003,0.001,0.004c0,0.001,0,0.001,0,0.001         c0,0.002,0,0.004,0.001,0.005c0,0,0,0.001,0,0.001c0.001,0.006,0.001,0.012,0.002,0.018l0,0c0,0.002,0,0.004,0.001,0.005         l0,0.001c0,0.002,0,0.003,0.001,0.005c0,0,0,0.001,0,0.001c0,0.002,0,0.004,0.001,0.006l0,0         c0.001,0.01,0.003,0.02,0.004,0.031l0,0c0,0.002,0,0.004,0.001,0.006c0,0,0,0,0,0c0.003,0.025,0.006,0.05,0.01,0.075         c0,0,0,0,0,0c0,0.002,0.001,0.004,0.001,0.006l0,0c0,0.002,0.001,0.004,0.001,0.006l0,0c0.001,0.008,0.002,0.016,0.003,0.024         c0,0,0,0.001,0,0.001c0,0.002,0,0.004,0.001,0.005c0,0.001,0,0.001,0,0.001c0,0.002,0.001,0.004,0.001,0.005         c0,0,0,0.002,0,0.002c0,0.002,0,0.003,0.001,0.004c0,0.001,0,0.001,0,0.001c0,0.002,0,0.004,0.001,0.005         c0,0.001,0,0.001,0,0.002c0,0.003,0.001,0.005,0.001,0.008c0,0.001,0,0.002,0,0.003c0,0.002,0,0.002,0,0.003         c0,0.001,0,0.002,0,0.003c0,0.001,0,0.003,0,0.004c0,0.001,0,0.002,0,0.003c0,0.001,0,0.002,0,0.003         c0,0.001,0,0.003,0.001,0.004c0,0.001,0,0.002,0,0.002c0.001,0.01,0.003,0.02,0.004,0.029l0,0         c0.009,0.063,0.018,0.127,0.027,0.19l0.742-0.112C0.876,17.997,0.84,17.697,0.813,17.395L0.813,17.395z M1.083,19.184         L0.349,19.34c0.066,0.311,0.141,0.619,0.225,0.923l0.723-0.199C1.217,19.774,1.146,19.481,1.083,19.184L1.083,19.184z          M1.564,20.929l-0.71,0.242c0.048,0.14,0.097,0.279,0.149,0.416l0,0c0.001,0.002,0.001,0.004,0.002,0.006l0,0         c0.003,0.008,0.005,0.015,0.008,0.022c0,0,0,0.001,0,0.001c0.001,0.002,0.001,0.003,0.002,0.005l0,0.001         c0.001,0.002,0.001,0.003,0.002,0.005l0,0.001c0.002,0.005,0.004,0.01,0.006,0.016c0,0,0,0.001,0,0.001         c0.001,0.001,0.001,0.003,0.002,0.004c0,0.001,0.001,0.001,0.001,0.002c0,0.001,0.001,0.003,0.001,0.004         c0,0.001,0.001,0.002,0.001,0.003C1.03,21.659,1.03,21.66,1.03,21.661c0,0.001,0.001,0.002,0.001,0.003         c0.001,0.002,0.002,0.004,0.002,0.006c0,0.001,0.001,0.002,0.001,0.003c0,0.001,0.001,0.002,0.001,0.003         c0,0.001,0.001,0.002,0.001,0.003c0,0,0.001,0.002,0.001,0.003c0.001,0.001,0.001,0.003,0.002,0.004         c0,0,0.001,0.002,0.001,0.002c0.001,0.002,0.001,0.003,0.002,0.005c0,0.001,0,0.001,0.001,0.002         c0.001,0.002,0.002,0.004,0.002,0.006l0,0.001c0.001,0.002,0.001,0.004,0.002,0.006c0,0,0,0.001,0.001,0.002         c0.001,0.002,0.001,0.003,0.002,0.005c0,0.001,0,0.001,0.001,0.002c0.001,0.002,0.001,0.003,0.002,0.005         c0,0,0.001,0.001,0.001,0.001c0.001,0.002,0.002,0.004,0.002,0.006c0,0,0,0,0,0.001c0.001,0.002,0.002,0.004,0.003,0.007         c0,0,0,0,0,0.001c0.001,0.002,0.002,0.004,0.002,0.006l0.001,0.001c0.001,0.002,0.001,0.004,0.002,0.006l0,0.001         c0.001,0.002,0.002,0.004,0.002,0.006c0,0,0,0.001,0,0.001c0.004,0.009,0.007,0.018,0.011,0.027c0,0,0,0,0,0.001         c0.004,0.009,0.007,0.018,0.011,0.027l0,0c0.032,0.083,0.065,0.165,0.099,0.247l0.694-0.284         C1.768,21.497,1.662,21.215,1.564,20.929L1.564,20.929z M2.249,22.603l-0.676,0.325c0.004,0.009,0.008,0.018,0.013,0.026         c0,0,0.001,0.001,0.001,0.002c0.001,0.002,0.001,0.003,0.002,0.005c0,0.001,0.001,0.001,0.001,0.002         c0.001,0.001,0.001,0.002,0.002,0.004c0,0.001,0.001,0.002,0.001,0.003c0.001,0.001,0.001,0.002,0.002,0.003         c0.001,0.002,0.002,0.004,0.003,0.006c0,0.001,0.001,0.001,0.001,0.001C1.6,22.982,1.6,22.984,1.601,22.985         c0,0,0,0.001,0,0.001c0.001,0.002,0.002,0.003,0.002,0.005c0,0,0,0.001,0,0.001c0.076,0.156,0.154,0.311,0.235,0.464l0,0         c0.006,0.011,0.011,0.021,0.017,0.032l0,0c0.05,0.095,0.102,0.189,0.154,0.283l0.655-0.365         C2.52,23.143,2.381,22.875,2.249,22.603L2.249,22.603z M3.13,24.184l-0.632,0.403c0.17,0.267,0.348,0.529,0.534,0.786         l0.608-0.44C3.462,24.689,3.292,24.439,3.13,24.184L3.13,24.184z M4.191,25.65l-0.58,0.475         c0.038,0.046,0.075,0.091,0.113,0.137c0,0,0,0.001,0,0.001c0.002,0.002,0.003,0.003,0.004,0.005c0,0,0,0,0.001,0.001         c0.001,0.002,0.003,0.003,0.004,0.005c0,0,0.001,0.001,0.001,0.001c0.002,0.002,0.003,0.004,0.005,0.006         c0.001,0.001,0.001,0.001,0.001,0.002c0.001,0.001,0.002,0.002,0.003,0.003c0.001,0.001,0.001,0.002,0.002,0.003         c0.001,0.001,0.002,0.002,0.002,0.003c0.001,0.001,0.001,0.002,0.002,0.003c0.001,0.001,0.001,0.001,0.002,0.002         c0.001,0.001,0.002,0.002,0.003,0.003l0,0c0.003,0.003,0.005,0.006,0.007,0.009c0,0,0,0,0,0         c0.001,0.002,0.002,0.003,0.004,0.004c0,0,0,0,0,0c0.001,0.002,0.002,0.003,0.004,0.004c0,0,0,0,0.001,0.001         c0.126,0.149,0.255,0.296,0.386,0.441c0,0,0.001,0.001,0.002,0.002c0.001,0.001,0.002,0.002,0.002,0.003         c0.001,0.001,0.001,0.002,0.002,0.002c0.001,0.001,0.001,0.001,0.002,0.003c0.001,0.001,0.002,0.002,0.003,0.003         c0.001,0.001,0.001,0.001,0.002,0.002c0.001,0.001,0.003,0.003,0.004,0.004c0,0,0.001,0.001,0.001,0.001         c0.001,0.001,0.002,0.003,0.004,0.004c0,0,0.001,0.001,0.001,0.001c0.001,0.002,0.003,0.003,0.004,0.005l0,0         c0.017,0.018,0.033,0.036,0.05,0.055l0.551-0.508C4.581,26.112,4.382,25.884,4.191,25.65L4.191,25.65z M5.418,26.981         l-0.52,0.54c0.046,0.045,0.093,0.089,0.14,0.133l0,0c0.005,0.005,0.011,0.01,0.016,0.015c0,0,0.001,0.001,0.001,0.001         c0.001,0.001,0.003,0.002,0.004,0.004l0.002,0.002c0.001,0.001,0.002,0.002,0.003,0.003l0.001,0.001         c0.001,0.001,0.002,0.002,0.003,0.003c0.001,0.001,0.003,0.003,0.004,0.004c0.001,0.001,0.001,0.001,0.002,0.002         c0.001,0.001,0.002,0.001,0.003,0.002c0,0,0.001,0.001,0.002,0.002c0,0,0.002,0.002,0.003,0.003         c0.001,0.001,0.001,0.001,0.002,0.002c0.001,0.001,0.002,0.002,0.003,0.003c0,0,0,0,0.001,0.001         c0.004,0.004,0.008,0.007,0.012,0.011c0,0,0.001,0.001,0.001,0.001c0.164,0.152,0.33,0.301,0.5,0.446l0.488-0.57         C5.859,27.394,5.636,27.191,5.418,26.981L5.418,26.981z M6.794,28.159l-0.453,0.598c0.079,0.06,0.16,0.12,0.24,0.179         c0.001,0,0.001,0.001,0.002,0.001c0.001,0.001,0.002,0.002,0.003,0.003c0.001,0,0.001,0.001,0.001,0.001         c0.002,0.001,0.003,0.002,0.004,0.003c0.001,0.001,0.003,0.002,0.004,0.003c0.001,0.001,0.002,0.001,0.002,0.002         c0.001,0.001,0.003,0.002,0.004,0.003c0,0,0.001,0.001,0.002,0.001c0.001,0.001,0.003,0.002,0.004,0.003l0.001,0.001         c0.002,0.001,0.004,0.003,0.005,0.004l0,0c0.164,0.119,0.331,0.235,0.499,0.348l0.417-0.623         C7.28,28.516,7.034,28.341,6.794,28.159L6.794,28.159z M8.298,29.165l-0.379,0.647c0.273,0.16,0.551,0.312,0.833,0.456         l0.34-0.668C8.823,29.462,8.558,29.318,8.298,29.165L8.298,29.165z M9.911,29.986l-0.3,0.687         c0.29,0.126,0.583,0.244,0.882,0.353l0.258-0.704C10.467,30.219,10.187,30.106,9.911,29.986L9.911,29.986z M11.61,30.609         l-0.216,0.718c0.17,0.051,0.341,0.099,0.513,0.145c0,0,0.001,0,0.002,0c0.002,0,0.003,0.001,0.005,0.001         c0.001,0,0.002,0,0.003,0.001c0.001,0,0.003,0.001,0.004,0.001c0.001,0,0.002,0,0.003,0.001c0.001,0,0.002,0.001,0.003,0.001         c0.001,0,0.002,0.001,0.003,0.001l0.001,0c0.004,0.001,0.007,0.002,0.011,0.003l0.001,0c0.002,0.001,0.003,0.001,0.005,0.001         l0.001,0c0.002,0.001,0.003,0.001,0.005,0.001c0,0,0.001,0,0.001,0c0.119,0.031,0.238,0.061,0.358,0.089l0.172-0.73         C12.189,30.773,11.897,30.695,11.61,30.609L11.61,30.609z M13.371,31.024l-0.128,0.739c0.06,0.01,0.119,0.02,0.179,0.03l0,0         c0.002,0,0.004,0.001,0.006,0.001l0.001,0c0.008,0.001,0.014,0.002,0.022,0.004c0.001,0,0.002,0,0.003,0         c0.001,0,0.002,0,0.003,0.001c0.001,0,0.002,0,0.004,0.001c0.001,0,0.002,0,0.003,0c0.001,0,0.003,0,0.004,0.001l0.003,0         c0.001,0,0.003,0,0.004,0.001c0.001,0,0.002,0,0.003,0c0.002,0,0.004,0.001,0.007,0.001l0.001,0         c0.002,0,0.004,0.001,0.007,0.001l0.001,0c0.002,0,0.004,0.001,0.006,0.001c0.001,0,0.001,0,0.001,0         c0.002,0,0.004,0.001,0.005,0.001c0.001,0,0.001,0,0.002,0c0.002,0,0.004,0.001,0.006,0.001l0,0         c0.007,0.001,0.014,0.002,0.021,0.003l0.001,0c0.002,0,0.004,0.001,0.006,0.001l0,0c0.002,0,0.005,0.001,0.007,0.001l0.001,0         c0.01,0.001,0.019,0.003,0.029,0.004l0,0c0.002,0,0.005,0.001,0.007,0.001l0,0c0.002,0,0.004,0.001,0.006,0.001         c0.001,0,0.001,0,0.001,0c0.008,0.001,0.015,0.002,0.022,0.003h0c0.002,0,0.004,0.001,0.007,0.001c0,0,0.001,0,0.001,0         c0.002,0,0.004,0.001,0.006,0.001c0,0,0.001,0,0.001,0c0.002,0,0.004,0.001,0.006,0.001l0.001,0         c0.005,0.001,0.009,0.001,0.014,0.002c0.001,0,0.001,0,0.001,0c0.002,0,0.004,0.001,0.006,0.001c0.001,0,0.001,0,0.001,0         c0.002,0,0.004,0.001,0.005,0.001c0.001,0,0.001,0,0.002,0c0.002,0,0.003,0,0.005,0.001l0.002,0c0.002,0,0.003,0,0.004,0.001         c0.001,0,0.001,0,0.003,0c0.002,0,0.004,0.001,0.007,0.001c0.001,0,0.001,0,0.002,0c0.002,0,0.003,0,0.005,0.001         c0.001,0,0.002,0,0.003,0c0.001,0,0.002,0,0.004,0.001c0.001,0,0.003,0,0.004,0.001c0.001,0,0.002,0,0.003,0         c0.001,0,0.003,0,0.004,0.001c0.001,0,0.002,0,0.003,0c0.002,0,0.002,0,0.004,0.001c0,0,0.001,0,0.002,0         c0.005,0.001,0.01,0.001,0.015,0.002c0.001,0,0.001,0,0.002,0c0.002,0,0.003,0,0.005,0.001c0,0,0.001,0,0.002,0         c0.002,0,0.003,0,0.005,0.001c0.001,0,0.001,0,0.001,0c0.002,0,0.004,0.001,0.006,0.001l0.001,0         c0.01,0.001,0.02,0.003,0.03,0.004l0.001,0c0.125,0.017,0.249,0.033,0.375,0.047l0,0c0.006,0.001,0.013,0.001,0.019,0.002         l0.084-0.745C13.965,31.119,13.666,31.076,13.371,31.024L13.371,31.024z M15.169,31.228l-0.04,0.749         c0.257,0.014,0.515,0.021,0.775,0.023l0.001,0c0.002,0,0.004,0,0.006,0h0.001c0.002,0,0.004,0,0.005,0         c0.001,0,0.001,0,0.001,0c0.002,0,0.004,0,0.006,0c0.001,0,0.001,0,0.001,0c0.002,0,0.004,0,0.005,0c0.001,0,0.001,0,0.002,0         c0.001,0,0.003,0,0.004,0c0.001,0,0.001,0,0.003,0c0.001,0,0.003,0,0.004,0c0.001,0,0.002,0,0.003,0c0.001,0,0.003,0,0.004,0         c0.001,0,0.002,0,0.003,0c0.001,0,0.003,0,0.004,0c0.001,0,0.002,0,0.003,0c0.001,0,0.002,0,0.004,0c0.001,0,0.002,0,0.003,0         c0.001,0,0.002,0,0.003,0c0.001,0,0.002,0,0.003,0c0.001,0,0.003,0,0.004,0c0.001,0,0.002,0,0.003,0c0.001,0,0.002,0,0.003,0         c0.001,0,0.002,0,0.003,0c0.002,0,0.003,0,0.005,0c0.001,0,0.001,0,0.001,0c0.003,0,0.005,0,0.007,0c0.003,0,0.006,0,0.008,0         c0.001,0,0.002,0,0.003,0c0.001,0,0.003,0,0.004,0c0.021,0,0.042,0,0.063,0l-0.004-0.75l-0.075,0         C15.721,31.25,15.444,31.243,15.169,31.228L15.169,31.228z M17.882,31.135c-0.298,0.037-0.598,0.065-0.901,0.084l0.047,0.748         c0.297-0.019,0.591-0.046,0.884-0.081c0,0,0,0,0,0c0.002,0,0.004,0,0.006-0.001c0,0,0.001,0,0.001,0         c0.002,0,0.003,0,0.005-0.001c0,0,0.002,0,0.002,0c0.002,0,0.003,0,0.004-0.001c0.001,0,0.002,0,0.004,0         c0.001,0,0.002,0,0.003,0c0.002,0,0.004-0.001,0.007-0.001c0.001,0,0.001,0,0.001,0c0.002,0,0.004-0.001,0.006-0.001l0.001,0         c0.002,0,0.004-0.001,0.006-0.001l0.001,0c0.005-0.001,0.009-0.001,0.014-0.002L17.882,31.135L17.882,31.135z M19.662,30.808         c-0.292,0.072-0.587,0.135-0.885,0.19l0.136,0.738c0.027-0.005,0.053-0.01,0.08-0.015c0.001,0,0.001,0,0.001,0         c0.002,0,0.003-0.001,0.005-0.001c0.001,0,0.002,0,0.003-0.001c0.001,0,0.002,0,0.003-0.001c0.002,0,0.002,0,0.004-0.001         c0.001,0,0.001,0,0.002,0c0.279-0.053,0.556-0.114,0.83-0.181L19.662,30.808L19.662,30.808z M21.39,30.27         c-0.281,0.106-0.567,0.205-0.856,0.294l0.223,0.716c0.231-0.072,0.46-0.149,0.687-0.231c0,0,0.001,0,0.001,0         c0.002-0.001,0.003-0.001,0.005-0.002c0,0,0.001,0,0.001,0c0.002-0.001,0.003-0.001,0.005-0.002c0,0,0.001,0,0.001-0.001         c0.005-0.002,0.01-0.004,0.015-0.005c0.001,0,0.001,0,0.001,0c0.002-0.001,0.003-0.001,0.004-0.001         c0.001,0,0.002-0.001,0.003-0.001c0.001,0,0.002-0.001,0.003-0.001c0.001,0,0.002-0.001,0.003-0.001         c0.001-0.001,0.002-0.001,0.003-0.001c0.002-0.001,0.004-0.001,0.005-0.002l0.001,0c0.002-0.001,0.005-0.002,0.007-0.002l0,0         c0.002-0.001,0.004-0.002,0.006-0.002l0.001,0c0.002-0.001,0.004-0.001,0.005-0.002c0,0,0.001,0,0.001-0.001         c0.046-0.017,0.092-0.034,0.138-0.051L21.39,30.27L21.39,30.27z M23.041,29.531c-0.267,0.139-0.539,0.271-0.815,0.394         l0.307,0.684c0.16-0.072,0.32-0.146,0.477-0.223c0,0,0,0,0,0c0.002-0.001,0.004-0.002,0.005-0.003         c0.001,0,0.001,0,0.002-0.001c0.004-0.002,0.008-0.004,0.012-0.006c0.001-0.001,0.002-0.001,0.003-0.002         c0.001,0,0.002-0.001,0.002-0.001c0.001-0.001,0.003-0.001,0.004-0.002c0,0,0.001,0,0.001-0.001         c0.002-0.001,0.003-0.001,0.005-0.002l0,0c0.115-0.056,0.229-0.114,0.342-0.173L23.041,29.531L23.041,29.531z M24.593,28.6         c-0.249,0.17-0.503,0.333-0.762,0.488l0.386,0.643c0.272-0.163,0.538-0.334,0.8-0.512L24.593,28.6L24.593,28.6z          M26.025,27.492c-0.227,0.198-0.461,0.39-0.699,0.575l0.459,0.593c0.059-0.045,0.117-0.091,0.175-0.137l0,0         c0.002-0.001,0.003-0.003,0.005-0.004l0.001-0.001c0.002-0.001,0.003-0.003,0.005-0.004l0.001-0.001         c0.004-0.003,0.007-0.006,0.011-0.009c0,0,0.001,0,0.001-0.001c0.002-0.001,0.003-0.002,0.005-0.004c0,0,0.001,0,0.001-0.001         c0.002-0.001,0.003-0.002,0.004-0.004c0,0,0.001-0.001,0.001-0.001c0.004-0.003,0.008-0.006,0.011-0.009l0.001-0.001         c0.001-0.001,0.003-0.002,0.004-0.004c0,0,0.001-0.001,0.001-0.001c0.001-0.001,0.003-0.002,0.004-0.003l0.002-0.001         c0.002-0.001,0.003-0.003,0.005-0.004h0c0.004-0.003,0.007-0.006,0.011-0.009c0,0,0.001-0.001,0.001-0.001         c0.001-0.001,0.003-0.002,0.004-0.003c0,0,0.001-0.001,0.002-0.001c0.002-0.001,0.003-0.002,0.004-0.004l0.001-0.001         c0.002-0.001,0.004-0.003,0.005-0.004c0,0,0.001,0,0.001,0c0.002-0.002,0.003-0.003,0.005-0.004l0.002-0.001         c0.001-0.001,0.002-0.002,0.004-0.003c0.001-0.001,0.001-0.001,0.002-0.002c0.001-0.001,0.003-0.002,0.004-0.003l0.001-0.001         c0.004-0.003,0.007-0.006,0.011-0.009c0,0,0.001-0.001,0.002-0.001c0.001-0.001,0.003-0.002,0.004-0.003         c0.001-0.001,0.001-0.001,0.002-0.002c0.001-0.001,0.002-0.002,0.004-0.003c0,0,0.001-0.001,0.002-0.001         c0.002-0.001,0.003-0.002,0.005-0.004c0,0,0.001,0,0.001-0.001c0.002-0.001,0.004-0.003,0.005-0.004l0.001-0.001         c0.001-0.001,0.003-0.002,0.004-0.003c0.001-0.001,0.001-0.001,0.002-0.002c0.001-0.001,0.002-0.002,0.003-0.003         c0,0,0.001-0.001,0.002-0.001c0.001-0.001,0.003-0.002,0.004-0.004c0,0,0,0,0.001-0.001c0.002-0.001,0.004-0.003,0.005-0.004         c0,0,0,0,0.001-0.001c0.002-0.001,0.003-0.003,0.005-0.004c0,0,0.001-0.001,0.001-0.001c0.002-0.001,0.003-0.003,0.004-0.004         c0,0,0.001-0.001,0.001-0.001c0.002-0.002,0.003-0.003,0.005-0.004c0,0,0.001-0.001,0.001-0.001         c0.002-0.001,0.004-0.003,0.005-0.004l0,0c0.002-0.001,0.003-0.003,0.005-0.004c0,0,0.001-0.001,0.001-0.001         c0.001-0.001,0.003-0.002,0.004-0.004c0,0,0.001-0.001,0.001-0.001c0.002-0.002,0.004-0.003,0.005-0.004l0,0         c0.004-0.003,0.008-0.006,0.011-0.009l0,0c0.002-0.001,0.004-0.003,0.005-0.004l0,0c0.002-0.001,0.003-0.003,0.005-0.004         l0.001,0c0.004-0.003,0.007-0.006,0.011-0.009l0.001-0.001c0.002-0.001,0.003-0.003,0.005-0.004l0.001-0.001         c0.002-0.001,0.004-0.003,0.005-0.004l0,0c0.006-0.005,0.011-0.009,0.017-0.014l0,0c0.002-0.002,0.004-0.003,0.006-0.005l0,0         c0.095-0.079,0.189-0.159,0.282-0.241L26.025,27.492L26.025,27.492z M27.316,26.223c-0.203,0.224-0.412,0.442-0.627,0.654         l0.526,0.535c0.056-0.055,0.112-0.111,0.168-0.167c0,0,0.001-0.001,0.001-0.001c0.001-0.001,0.003-0.003,0.004-0.004         c0,0,0.001-0.001,0.001-0.001c0.001-0.001,0.003-0.003,0.004-0.004c0,0,0,0,0.001-0.001c0.002-0.002,0.003-0.003,0.005-0.005         l0,0c0.001-0.001,0.003-0.003,0.004-0.004c0,0,0.001-0.001,0.002-0.002c0.001-0.001,0.002-0.002,0.003-0.003         c0.001-0.001,0.001-0.001,0.002-0.002c0.001-0.001,0.002-0.002,0.003-0.003c0.001-0.001,0.001-0.001,0.002-0.002         c0.002-0.002,0.003-0.003,0.005-0.005c0.001-0.001,0.001-0.001,0.002-0.002c0.001-0.001,0.002-0.002,0.003-0.003         c0.001-0.001,0.002-0.002,0.003-0.003c0.001-0.001,0.001-0.001,0.002-0.002c0,0,0.002-0.002,0.002-0.002         c0.001-0.001,0.002-0.002,0.002-0.002c0.001-0.001,0.001-0.001,0.003-0.003c0.001-0.001,0.001-0.001,0.002-0.002         c0.001-0.001,0.003-0.003,0.005-0.005c0.001-0.001,0.001-0.001,0.002-0.002c0.001-0.001,0.001-0.001,0.002-0.003         c0.001-0.001,0.002-0.002,0.002-0.003c0.001-0.001,0.002-0.002,0.002-0.002c0.001-0.001,0.001-0.001,0.002-0.002         c0.001-0.001,0.002-0.002,0.003-0.003c0,0,0.001-0.001,0.001-0.001c0.003-0.004,0.007-0.007,0.011-0.011l0.001-0.001         c0.001-0.001,0.002-0.002,0.003-0.003c0-0.001,0.001-0.001,0.001-0.001c0.001-0.001,0.002-0.002,0.003-0.003l0.001-0.002         c0.001-0.001,0.002-0.002,0.003-0.003c0,0,0,0,0,0c0.003-0.003,0.004-0.005,0.007-0.007c0.001-0.001,0.001-0.001,0.002-0.002         c0.001-0.001,0.002-0.002,0.003-0.003c0.001-0.001,0.001-0.001,0.002-0.002c0.001-0.001,0.002-0.002,0.003-0.003         c0.001-0.001,0.001-0.001,0.002-0.002c0.001-0.001,0.002-0.002,0.003-0.003c0,0,0,0,0.001-0.001         c0.002-0.002,0.004-0.005,0.006-0.006c0.001-0.001,0.001-0.001,0.002-0.002c0.001-0.001,0.001-0.001,0.002-0.002         c0.001-0.001,0.002-0.002,0.003-0.003c0.001-0.001,0.002-0.002,0.002-0.002c0.001-0.001,0.002-0.002,0.002-0.003         c0.001-0.001,0.002-0.002,0.002-0.002c0.001-0.001,0.001-0.001,0.002-0.002c0.001-0.001,0.003-0.003,0.005-0.005         c0.001-0.001,0.002-0.002,0.002-0.002c0.001-0.001,0.001-0.001,0.002-0.002c0.001-0.001,0.002-0.002,0.002-0.003         c0.001-0.001,0.002-0.002,0.002-0.002c0.001-0.001,0.002-0.002,0.003-0.003c0.001-0.001,0.001-0.001,0.002-0.002         c0.001-0.001,0.003-0.003,0.004-0.004l0,0c0.002-0.002,0.003-0.003,0.005-0.005c0,0,0.001-0.001,0.001-0.001         c0.001-0.001,0.002-0.003,0.004-0.004c0,0,0.001-0.001,0.001-0.001c0.001-0.001,0.003-0.003,0.004-0.004c0,0,0,0,0.001-0.001         c0.104-0.109,0.207-0.219,0.308-0.331L27.316,26.223L27.316,26.223z M28.449,24.811c-0.175,0.246-0.357,0.488-0.545,0.723         l0.585,0.469c0.198-0.247,0.389-0.5,0.572-0.758L28.449,24.811L28.449,24.811z M29.406,23.275         c-0.144,0.266-0.297,0.526-0.456,0.782l0.636,0.397c0.167-0.269,0.327-0.542,0.478-0.821L29.406,23.275L29.406,23.275z          M30.175,21.637c-0.112,0.281-0.232,0.558-0.36,0.831l0.679,0.318c0.134-0.286,0.26-0.576,0.377-0.872L30.175,21.637         L30.175,21.637z M30.742,19.919c-0.078,0.293-0.164,0.582-0.258,0.867l0.712,0.235c0.092-0.278,0.176-0.56,0.253-0.845         l0-0.001c0-0.002,0.001-0.003,0.001-0.005c0-0.001,0-0.001,0.001-0.002c0-0.001,0.001-0.003,0.001-0.004         c0-0.001,0-0.002,0.001-0.003c0-0.001,0.001-0.003,0.001-0.004c0.001-0.002,0.001-0.004,0.002-0.007         c0-0.001,0-0.002,0.001-0.002c0-0.001,0.001-0.003,0.001-0.004c0-0.001,0-0.002,0.001-0.002c0-0.001,0.001-0.003,0.001-0.005         c0-0.001,0-0.001,0-0.001c0.001-0.002,0.001-0.003,0.001-0.005l0-0.001c0.002-0.006,0.003-0.012,0.005-0.019L30.742,19.919         L30.742,19.919z M31.1,18.145c-0.042,0.3-0.093,0.598-0.153,0.892l0.735,0.149c0.034-0.169,0.066-0.339,0.094-0.509l0-0.001         c0-0.002,0.001-0.004,0.001-0.006c0-0.001,0-0.001,0-0.001c0-0.002,0.001-0.004,0.001-0.005c0-0.001,0-0.001,0-0.001         c0-0.002,0.001-0.004,0.001-0.006l0-0.001c0-0.002,0.001-0.005,0.001-0.007c0-0.001,0-0.001,0-0.001         c0-0.002,0.001-0.004,0.001-0.006c0-0.001,0-0.002,0-0.003c0-0.001,0-0.003,0.001-0.004c0-0.001,0-0.002,0.001-0.003         c0-0.001,0-0.002,0-0.003c0-0.001,0-0.003,0.001-0.004c0-0.001,0-0.002,0-0.002c0-0.002,0.001-0.003,0.001-0.005l0,0         c0.002-0.01,0.003-0.02,0.005-0.031l0,0c0.018-0.111,0.035-0.223,0.051-0.335L31.1,18.145L31.1,18.145z M31.246,16.341         c-0.007,0.304-0.022,0.606-0.046,0.905l0.748,0.06c0.008-0.093,0.014-0.186,0.02-0.28l0-0.001c0-0.002,0-0.004,0-0.006         c0-0.001,0-0.001,0-0.002c0-0.002,0-0.003,0-0.005l0-0.002c0-0.002,0-0.003,0-0.005c0-0.001,0-0.001,0-0.001         c0-0.002,0-0.004,0-0.006l0-0.002c0-0.002,0-0.004,0-0.007c0-0.001,0-0.003,0-0.004c0-0.001,0-0.002,0-0.003         c0-0.002,0-0.002,0-0.004c0-0.001,0-0.002,0-0.003c0-0.001,0-0.003,0-0.004c0,0,0-0.002,0-0.003c0-0.002,0-0.003,0-0.005         c0,0,0-0.001,0-0.002c0-0.002,0-0.003,0-0.005c0,0,0-0.001,0-0.001c0.001-0.009,0.001-0.016,0.001-0.024c0,0,0-0.001,0-0.001         c0-0.002,0-0.003,0-0.005l0-0.001c0-0.002,0-0.003,0-0.005c0,0,0-0.001,0-0.001c0-0.002,0-0.004,0-0.006c0,0,0,0,0,0         c0.001-0.011,0.001-0.021,0.002-0.032l0,0c0-0.002,0-0.004,0-0.006c0,0,0,0,0,0c0.001-0.013,0.001-0.025,0.002-0.038l0,0         c0-0.002,0-0.004,0-0.006l0,0c0-0.002,0-0.004,0-0.006l0-0.001c0.001-0.011,0.001-0.02,0.002-0.031c0,0,0-0.001,0-0.001         c0-0.002,0-0.004,0-0.006c0,0,0-0.001,0-0.001c0-0.002,0-0.003,0-0.005c0,0,0-0.001,0-0.001c0-0.002,0-0.004,0-0.006l0-0.001         c0-0.005,0.001-0.011,0.001-0.017l0-0.002c0-0.002,0-0.003,0-0.004c0-0.001,0-0.002,0-0.003c0-0.001,0-0.003,0-0.004         c0-0.001,0-0.002,0-0.003s0-0.002,0-0.004c0-0.001,0-0.002,0-0.004c0-0.001,0-0.002,0-0.003c0-0.002,0-0.003,0-0.005         c0,0,0-0.001,0-0.002c0-0.002,0-0.005,0-0.007l0,0c0-0.002,0-0.005,0-0.007l0-0.001c0-0.002,0-0.004,0-0.006         c0-0.001,0-0.001,0-0.001c0-0.003,0-0.005,0-0.007l0-0.001c0-0.002,0-0.004,0-0.007c0-0.001,0,0,0,0         c0.005-0.109,0.008-0.218,0.01-0.328L31.246,16.341L31.246,16.341z M31.927,14.459L31.18,14.53         c0.029,0.299,0.048,0.6,0.06,0.904l0.75-0.027c-0.002-0.049-0.004-0.098-0.006-0.147l0,0c0-0.002,0-0.004,0-0.005         c0,0,0-0.001,0-0.002c0-0.001,0-0.003,0-0.004c0-0.001,0-0.002,0-0.003c0-0.001,0-0.003,0-0.004c0-0.001,0-0.003,0-0.004         c0-0.001,0-0.002,0-0.003c0-0.007-0.001-0.014-0.001-0.022l0,0c-0.01-0.198-0.023-0.396-0.04-0.592c0-0.001,0,0,0,0         c0-0.002,0-0.005-0.001-0.007l0,0c0-0.002,0-0.004-0.001-0.007c0-0.001,0,0,0,0c-0.001-0.008-0.001-0.015-0.002-0.022         l0-0.001c0-0.002,0-0.004,0-0.006c0,0,0-0.002,0-0.002c0-0.002,0-0.003,0-0.005c0-0.001,0-0.001,0-0.002         c0-0.002,0-0.003,0-0.005l0-0.003c0-0.001,0-0.003,0-0.004c0-0.001,0-0.001,0-0.003c0-0.001,0-0.003,0-0.004         c0-0.002,0-0.004-0.001-0.006c0-0.001,0-0.002,0-0.003c0-0.002,0-0.003,0-0.004c0,0,0-0.002,0-0.002c0-0.002,0-0.003,0-0.004         c0-0.001,0-0.002,0-0.002c0-0.002,0-0.003,0-0.005l0-0.002c0-0.002,0-0.004,0-0.005c0,0,0-0.001,0-0.001         c-0.001-0.012-0.002-0.025-0.003-0.037l0,0C31.928,14.471,31.927,14.465,31.927,14.459L31.927,14.459z M31.634,12.583         l-0.733,0.159c0.064,0.294,0.119,0.59,0.166,0.89l0.741-0.115c-0.032-0.206-0.068-0.411-0.108-0.614c0-0.001,0-0.001,0-0.001         c0-0.002-0.001-0.004-0.001-0.006c0,0,0-0.001,0-0.002c0-0.002-0.001-0.004-0.001-0.005c0-0.001,0-0.001,0-0.002         c-0.001-0.005-0.002-0.009-0.003-0.014c0-0.001,0-0.001,0-0.002c0-0.001-0.001-0.003-0.001-0.004         c0-0.001,0-0.002-0.001-0.003c0-0.001,0-0.002-0.001-0.003c0-0.001-0.001-0.003-0.001-0.004c0-0.001,0-0.002-0.001-0.003         c0-0.002-0.001-0.003-0.001-0.004c0-0.001,0-0.001,0-0.002c-0.002-0.008-0.003-0.015-0.005-0.023l0,0         C31.669,12.743,31.652,12.663,31.634,12.583L31.634,12.583z M31.12,10.755l-0.709,0.246c0.099,0.284,0.189,0.572,0.271,0.864         l0.722-0.203c-0.079-0.282-0.166-0.561-0.26-0.836l0-0.001c-0.001-0.002-0.001-0.004-0.002-0.006l0-0.001         c-0.001-0.002-0.001-0.004-0.002-0.006c0,0,0,0,0-0.001c-0.001-0.002-0.001-0.004-0.002-0.006c0-0.001,0-0.001-0.001-0.002         c0-0.001-0.001-0.003-0.001-0.004c0-0.001-0.001-0.003-0.001-0.004c0-0.001-0.001-0.002-0.001-0.002         c0-0.001-0.001-0.003-0.001-0.004c0-0.001,0-0.001-0.001-0.002C31.128,10.776,31.124,10.765,31.12,10.755L31.12,10.755z          M30.392,9.001L29.718,9.33c0.132,0.271,0.256,0.546,0.372,0.825l0.693-0.288c-0.006-0.014-0.011-0.027-0.017-0.041         c0,0,0,0,0-0.001c-0.001-0.002-0.002-0.004-0.002-0.006c0,0,0,0,0-0.001c-0.001-0.002-0.002-0.004-0.002-0.005l-0.001-0.001         c-0.001-0.002-0.002-0.004-0.003-0.006c0,0,0,0,0-0.001c-0.001-0.002-0.001-0.003-0.002-0.005l-0.001-0.002         c-0.001-0.001-0.001-0.003-0.002-0.004c0-0.001-0.001-0.002-0.001-0.003c0-0.001-0.001-0.002-0.001-0.003         c-0.001-0.001-0.001-0.002-0.001-0.003c0-0.001-0.001-0.002-0.001-0.003c-0.001-0.002-0.002-0.004-0.002-0.006         c0-0.001-0.001-0.002-0.001-0.003c-0.001-0.001-0.001-0.002-0.002-0.004c0-0.001-0.001-0.001-0.001-0.002         c-0.001-0.002-0.001-0.003-0.002-0.004c0,0,0-0.001,0-0.001c-0.052-0.123-0.106-0.245-0.161-0.366c0,0,0-0.001,0-0.001         c-0.001-0.002-0.002-0.003-0.002-0.005l0-0.001c-0.002-0.005-0.005-0.01-0.007-0.015c0,0,0-0.001,0-0.001         c-0.001-0.002-0.001-0.003-0.002-0.004c0-0.001-0.001-0.001-0.001-0.001c-0.001-0.002-0.001-0.003-0.002-0.005         c0-0.001-0.001-0.002-0.001-0.002c-0.001-0.001-0.001-0.002-0.002-0.003c0-0.001-0.001-0.002-0.001-0.003         c0-0.001-0.001-0.002-0.001-0.003c-0.001-0.002-0.002-0.004-0.003-0.006c0-0.001-0.001-0.001-0.001-0.002         c-0.001-0.001-0.001-0.003-0.002-0.004c0,0-0.001-0.002-0.001-0.002c-0.001-0.001-0.001-0.003-0.002-0.004         c0-0.001,0-0.001-0.001-0.002c-0.001-0.002-0.002-0.003-0.002-0.005c0,0,0-0.001-0.001-0.002         c-0.002-0.004-0.004-0.009-0.006-0.013l0-0.001c-0.001-0.002-0.002-0.004-0.003-0.006l0-0.001         c-0.001-0.002-0.002-0.004-0.003-0.006c0,0,0,0,0,0C30.486,9.197,30.44,9.099,30.392,9.001L30.392,9.001z M29.46,7.347         l-0.63,0.406c0.163,0.253,0.319,0.512,0.467,0.775l0.653-0.368c-0.001-0.001-0.001-0.002-0.002-0.003l-0.001-0.001         c-0.001-0.002-0.001-0.002-0.002-0.004c0-0.001-0.001-0.001-0.001-0.002c-0.001-0.001-0.001-0.002-0.002-0.004         c-0.001-0.002-0.002-0.004-0.003-0.006l0,0c-0.001-0.002-0.002-0.004-0.003-0.006c0,0,0-0.001-0.001-0.001         c-0.001-0.002-0.002-0.004-0.003-0.006l0,0C29.782,7.862,29.625,7.602,29.46,7.347L29.46,7.347z M28.339,5.814l-0.578,0.478         c0.192,0.233,0.378,0.471,0.556,0.715l0.605-0.443c-0.072-0.099-0.146-0.197-0.221-0.295l0,0         C28.7,6.267,28.7,6.266,28.698,6.265c0,0-0.001-0.001-0.001-0.001c-0.001-0.001-0.002-0.003-0.003-0.004         c0,0-0.001-0.001-0.001-0.001c-0.002-0.002-0.003-0.004-0.005-0.006c-0.001-0.001-0.002-0.002-0.002-0.003         c-0.001-0.001-0.001-0.001-0.002-0.002c-0.001-0.001-0.002-0.002-0.003-0.003c-0.001-0.001-0.001-0.001-0.002-0.002         c-0.001-0.001-0.002-0.003-0.003-0.004c0,0,0,0-0.001-0.001C28.567,6.094,28.454,5.953,28.339,5.814L28.339,5.814z          M27.045,4.424l-0.518,0.543c0.218,0.208,0.431,0.423,0.636,0.644L27.713,5.1c-0.023-0.025-0.047-0.05-0.071-0.076         l-0.001-0.001c-0.003-0.003-0.006-0.007-0.01-0.01l0-0.001c-0.003-0.003-0.006-0.007-0.009-0.01         c-0.001-0.001-0.001-0.001-0.001-0.001c-0.004-0.004-0.006-0.007-0.009-0.01L27.61,4.991         c-0.003-0.003-0.006-0.006-0.009-0.009C27.601,4.981,27.601,4.981,27.6,4.98c-0.003-0.003-0.005-0.006-0.008-0.008         C27.591,4.971,27.59,4.97,27.59,4.969c-0.003-0.003-0.006-0.006-0.008-0.009c-0.001-0.001-0.001-0.001-0.002-0.002         c-0.002-0.003-0.005-0.005-0.007-0.008c-0.001-0.001-0.002-0.002-0.003-0.003c-0.002-0.002-0.005-0.005-0.007-0.007         c-0.001-0.001-0.003-0.003-0.004-0.004c-0.002-0.002-0.004-0.004-0.006-0.006c-0.001-0.001-0.003-0.003-0.004-0.005         c-0.002-0.002-0.004-0.004-0.006-0.006c-0.001-0.001-0.003-0.003-0.005-0.005c-0.002-0.002-0.004-0.004-0.006-0.006         c-0.002-0.002-0.004-0.004-0.005-0.006c-0.001-0.002-0.003-0.003-0.004-0.005c-0.002-0.002-0.004-0.004-0.006-0.006         c-0.002-0.002-0.003-0.004-0.005-0.005c-0.002-0.002-0.004-0.004-0.006-0.006c-0.001-0.001-0.002-0.002-0.003-0.004         c-0.002-0.003-0.004-0.004-0.007-0.007c-0.001-0.001-0.002-0.003-0.004-0.004c-0.002-0.003-0.005-0.005-0.008-0.008         c-0.001-0.001-0.002-0.002-0.003-0.003c-0.002-0.003-0.005-0.005-0.007-0.007c0,0-0.001-0.001-0.001-0.001         c-0.004-0.004-0.008-0.008-0.011-0.012c0,0-0.001-0.001-0.001-0.001c-0.003-0.003-0.005-0.005-0.008-0.008         c0,0-0.001-0.001-0.001-0.001c-0.004-0.004-0.008-0.008-0.012-0.012l0,0c-0.003-0.003-0.005-0.006-0.008-0.008c0,0,0,0,0,0         c-0.007-0.007-0.014-0.014-0.021-0.021l0,0c-0.007-0.007-0.014-0.014-0.021-0.021l0,0c-0.007-0.007-0.014-0.014-0.021-0.021         c0,0,0,0,0,0c-0.007-0.007-0.014-0.014-0.02-0.02c0,0-0.001-0.001-0.001-0.001C27.34,4.713,27.334,4.707,27.328,4.7         c-0.001-0.001-0.002-0.002-0.002-0.002c-0.002-0.002-0.004-0.004-0.007-0.007c-0.002-0.002-0.003-0.003-0.005-0.005         c-0.002-0.002-0.004-0.004-0.006-0.006c-0.001-0.001-0.003-0.003-0.004-0.004c-0.002-0.002-0.004-0.004-0.006-0.006         c-0.002-0.002-0.004-0.004-0.005-0.005c-0.002-0.002-0.003-0.003-0.005-0.005c-0.002-0.002-0.003-0.003-0.005-0.005         c-0.002-0.002-0.004-0.004-0.005-0.005c-0.002-0.002-0.004-0.004-0.006-0.006c-0.001-0.001-0.002-0.002-0.004-0.004         c-0.002-0.002-0.004-0.004-0.007-0.007c-0.001-0.001-0.003-0.003-0.004-0.004c-0.002-0.002-0.005-0.005-0.007-0.007         c-0.001-0.001-0.002-0.002-0.003-0.003c-0.003-0.003-0.005-0.005-0.008-0.008c-0.001-0.001-0.002-0.002-0.003-0.003         c-0.003-0.003-0.005-0.005-0.008-0.008c-0.001-0.001-0.001-0.001-0.001-0.001c-0.004-0.004-0.007-0.006-0.009-0.009         l-0.001-0.001c-0.003-0.003-0.006-0.006-0.01-0.009c0,0,0,0-0.001-0.001C27.152,4.527,27.099,4.475,27.045,4.424         L27.045,4.424z M25.597,3.196l-0.45,0.6c0.242,0.181,0.478,0.37,0.708,0.565l0.485-0.572         c-0.076-0.065-0.153-0.129-0.231-0.192c0,0-0.001-0.001-0.001-0.001c-0.001-0.001-0.002-0.002-0.003-0.003         c-0.001-0.001-0.002-0.001-0.002-0.002C26.1,3.59,26.1,3.59,26.099,3.589c-0.001-0.001-0.003-0.002-0.004-0.003         c-0.001-0.001-0.002-0.001-0.002-0.002c-0.001-0.001-0.002-0.002-0.004-0.003c-0.001-0.001-0.001-0.001-0.002-0.002         c-0.001-0.001-0.003-0.002-0.004-0.003c-0.001-0.001-0.001,0-0.001-0.001c-0.001-0.001-0.003-0.002-0.004-0.003         c0,0-0.001-0.001-0.001-0.001c-0.004-0.003-0.007-0.006-0.011-0.009l0,0c-0.002-0.001-0.004-0.003-0.005-0.004l0,0         C25.907,3.434,25.753,3.314,25.597,3.196L25.597,3.196z M24.013,2.148l-0.376,0.649c0.261,0.152,0.518,0.311,0.769,0.477         l0.414-0.625C24.557,2.474,24.288,2.307,24.013,2.148L24.013,2.148z M22.317,1.295L22.02,1.984         c0.278,0.12,0.551,0.247,0.82,0.382l0.337-0.67c-0.071-0.035-0.141-0.07-0.213-0.105l0,0         c-0.004-0.002-0.009-0.004-0.013-0.006l-0.001,0c-0.002-0.001-0.004-0.002-0.005-0.003c0,0-0.001-0.001-0.001-0.001         c-0.002-0.001-0.003-0.002-0.005-0.002c0,0-0.001-0.001-0.001-0.001c-0.002-0.001-0.004-0.002-0.006-0.003         c0,0-0.001,0-0.001,0c-0.002-0.001-0.004-0.002-0.006-0.003c-0.001-0.001-0.002-0.001-0.003-0.002         c-0.001,0-0.002-0.001-0.002-0.001c-0.001-0.001-0.003-0.001-0.004-0.002c-0.001,0-0.001-0.001-0.002-0.001         c-0.001-0.001-0.003-0.001-0.004-0.002c0,0-0.001,0-0.001,0c-0.13-0.062-0.26-0.122-0.391-0.181l0,0         c-0.007-0.003-0.014-0.006-0.021-0.009c0,0-0.001-0.001-0.002-0.001c-0.001-0.001-0.002-0.001-0.004-0.002         c-0.001,0-0.002-0.001-0.002-0.001c-0.001,0-0.003-0.001-0.004-0.002c-0.001,0-0.002-0.001-0.003-0.001         c-0.001-0.001-0.002-0.001-0.004-0.002c-0.002-0.001-0.004-0.002-0.006-0.003l0,0c-0.002-0.001-0.004-0.002-0.006-0.003         c0,0-0.001-0.001-0.001-0.001c-0.002-0.001-0.004-0.002-0.006-0.003l-0.001,0c-0.002-0.001-0.004-0.002-0.006-0.003l0,0         C22.408,1.335,22.362,1.315,22.317,1.295L22.317,1.295z M20.531,0.651L20.319,1.37c0.29,0.086,0.577,0.18,0.86,0.282         l0.255-0.705C21.136,0.839,20.835,0.74,20.531,0.651L20.531,0.651z M18.68,0.224l-0.125,0.74         c0.299,0.05,0.595,0.11,0.888,0.177l0.169-0.731c-0.217-0.05-0.436-0.096-0.656-0.137c0,0,0,0,0,0         c-0.002,0-0.004-0.001-0.006-0.001l0,0c-0.008-0.001-0.016-0.003-0.024-0.004c0,0-0.001,0-0.001,0         c-0.002,0-0.003-0.001-0.005-0.001l-0.001,0c-0.002,0-0.003-0.001-0.005-0.001c-0.001,0-0.001,0-0.002,0         c-0.002,0-0.003-0.001-0.005-0.001c-0.001,0-0.002,0-0.003-0.001c-0.002,0-0.004-0.001-0.005-0.001         c-0.002,0-0.003-0.001-0.005-0.001c-0.001,0-0.001,0-0.002,0c-0.001,0-0.003-0.001-0.004-0.001c-0.001,0-0.002,0-0.003-0.001         c-0.002,0-0.003-0.001-0.005-0.001c-0.001,0-0.001,0-0.002,0c-0.002,0-0.003-0.001-0.005-0.001c-0.001,0-0.001,0-0.001,0         c-0.003,0-0.005-0.001-0.007-0.001l0,0c-0.007-0.001-0.015-0.003-0.022-0.004h0C18.788,0.242,18.734,0.233,18.68,0.224         L18.68,0.224z M16.792,0.019l-0.037,0.749c0.303,0.015,0.605,0.038,0.903,0.071l0.081-0.746         C17.426,0.06,17.111,0.035,16.792,0.019L16.792,0.019z" fill="#E21B1B"/></g></g></g></g></g></g><g id="Cat_5_"><path d="M18.52,24.493h-2.263h-2.265c0,0,0.006-1.344,0-2.265c-3.099,0.667-3.964-1.699-3.964-1.699    c-0.566-1.132-1.132-1.699-1.132-1.699c-1.132-0.673,0-0.566,0-0.566c1.132,0,1.699,1.132,1.699,1.132    c0.994,1.687,2.762,1.416,3.397,1.132c0-0.566,0.248-1.422,0.566-1.699c-2.473-0.279-4.532-1.699-4.532-4.53    s0.568-3.397,1.135-3.964c-0.114-0.279-0.588-1.311,0.018-2.831c0,0,1.113,0,2.245,1.699c0.561-0.561,2.265-0.566,2.832-0.566    c0.565,0,2.269,0.005,2.83,0.566c1.132-1.699,2.248-1.699,2.248-1.699c0.605,1.52,0.132,2.552,0.017,2.831    c0.566,0.566,1.132,1.132,1.132,3.964s-2.056,4.251-4.53,4.53c0.319,0.276,0.566,1.251,0.566,1.699L18.52,24.493L18.52,24.493z"/></g></g></svg>